<svg viewBox="0 0 500 300" version="1.1" xmlns="http://www.w3.org/2000/svg" xmlns:xlink="http://www.w3.org/1999/xlink" xml:space="preserve" x="0" y="0" width="500" height="300"><path d="M 66.8932 300 L 79.756 258.857 C 84.2286 244.5638 86.775 234.5786 87.4279 228.9014 C 88.0809 223.2242 87.6402 217.9144 86.1221 212.9385 C 84.604 207.9959 81.5842 202.5525 77.0789 196.6415 L 70.8761 188.5265 C 66.5177 182.8492 62.845 180.0775 59.8088 180.2444 C 56.8053 180.4114 53.5569 184.0181 50.0638 191.0646 C 51.5655 182.6155 51.9247 176.1368 51.1574 171.5951 C 50.4066 167.0533 48.0723 162.2444 44.1547 157.1015 C 38.3762 149.5541 33.6261 145.8473 29.9044 145.9809 C 26.199 146.1479 23.0159 148.5523 20.3389 153.1943 C 17.6945 157.8696 14.6094 165.7843 11.0999 176.9717 L 0 212.4709 L 66.8932 300 L 66.8932 300 ZM 25.2523 184.9532 C 25.8889 183.9847 26.7377 183.6508 27.7987 183.9514 C 28.8924 184.2519 30.4921 185.7881 32.5814 188.5265 C 36.548 193.7362 38.8007 197.3428 39.3393 199.4134 C 39.8943 201.4839 39.6168 204.2557 38.5231 207.7288 C 38.262 208.5971 37.8865 209.7993 37.4295 211.3355 L 22.5589 191.866 C 23.7505 188.2593 24.6483 185.955 25.2523 184.9532 L 25.2523 184.9532 ZM 51.9573 216.5118 C 52.953 216.0442 54.8792 217.6805 57.7357 221.4209 L 63.9876 229.6027 C 66.6809 233.1426 68.1501 236.0814 68.4112 238.3522 C 68.6724 240.6232 68.0521 244.3301 66.5667 249.4729 L 47.8438 224.9608 C 49.6067 219.7845 50.9779 216.9792 51.9573 216.5118 L 51.9573 216.5118 Z" fill="#000000"/><path d="M 57.4151 86.8112 L 62.3284 105.5126 L 80.3658 85.7092 L 75.4525 67.0079 L 57.4151 86.8112 L 57.4151 86.8112 ZM 64.2057 112.6926 L 95.0732 230.411 L 113.1105 210.6076 L 82.243 92.8892 L 64.2057 112.6926 L 64.2057 112.6926 Z"/><path d="M 97.5542 79.8458 L 115.7547 207.2489 L 134.7225 195.9279 L 122.4146 109.8015 C 121.0435 100.217 120.3579 94.2058 120.3906 91.7679 C 120.4232 89.3635 121.1088 87.7272 122.4473 86.9257 C 123.7205 86.1909 124.6509 86.6919 125.206 88.4285 C 125.761 90.1984 126.675 95.4749 127.932 104.2244 L 140.5336 192.4548 L 159.5013 181.1004 L 146.7365 91.8013 C 145.1368 80.6807 143.7003 72.8997 142.4271 68.4915 C 141.1539 64.0833 139.2604 60.9441 136.7466 59.0406 C 134.2328 57.1371 131.3599 57.1371 128.1115 59.074 C 125.4998 60.6436 123.3777 63.1816 121.7291 66.7215 C 120.0641 70.2614 118.8888 74.7697 118.1869 80.2466 L 116.8484 68.3245 L 97.5542 79.8458 L 97.5542 79.8458 Z"/><path d="M 181.0395 41.1558 L 180.3049 51.4749 C 178.4277 47.8348 176.42 45.2634 174.2653 43.7606 C 172.1106 42.2912 169.809 41.8904 167.3604 42.5583 C 162.8552 43.8274 159.7048 47.5343 157.8766 53.6122 C 156.0484 59.7236 155.5587 69.0074 156.3748 81.4973 L 159.5742 129.2859 C 160.1455 138.0355 161.0107 144.6478 162.1696 149.1228 C 163.3286 153.5977 165.1405 156.9707 167.6216 159.2415 C 170.0865 161.5125 173.09 162.1803 176.6158 161.1785 C 178.6399 160.6441 180.5334 159.3083 182.28 157.1711 C 184.0266 155.0671 185.6426 152.2285 187.1281 148.6552 L 187.7973 158.5736 C 188.1728 164.2508 188.1728 168.058 187.8137 169.9614 C 187.4382 171.8984 186.5078 173.0672 185.0387 173.468 C 182.9656 174.0691 181.7414 171.4308 181.3496 165.6201 L 162.3492 170.9299 C 163.3286 183.5533 165.8424 191.5348 169.9232 194.8076 C 173.9878 198.0803 179.1459 198.8484 185.3815 197.1118 C 190.4417 195.6758 194.5715 193.3047 197.7546 190.0654 C 200.9377 186.7593 203.3208 182.6183 204.9042 177.6424 C 206.4713 172.6664 207.2874 168.1247 207.3201 164.0505 C 207.3527 159.9762 206.9283 151.1265 206.0142 137.4344 L 199.2563 36.0797 L 181.0395 41.1558 L 181.0395 41.1558 ZM 184.6796 117.2303 C 185.1693 124.7108 185.2999 129.5531 185.055 131.7572 C 184.7938 133.9947 184.0266 135.2971 182.7534 135.6311 C 181.6108 135.965 180.8109 135.2971 180.3539 133.6273 C 179.8805 131.991 179.4561 128.2173 179.0643 122.3398 L 176.1098 78.0909 C 175.7343 72.5474 175.718 68.7737 176.0608 66.7699 C 176.4036 64.7662 177.1382 63.5974 178.2808 63.2634 C 179.4235 62.9295 180.2233 63.564 180.6803 65.1002 C 181.1374 66.6697 181.5618 70.4434 181.9699 76.4546 L 184.6796 117.2303 L 184.6796 117.2303 Z"/><path d="M 259.9875 69.5166 C 259.7916 52.8189 259.4488 41.164 258.9918 34.4849 C 258.5184 27.8059 257.2288 21.6945 255.1068 16.1175 C 252.9847 10.5405 250.2098 6.3995 246.7982 3.7279 C 243.3703 1.0562 239.5507 -0.1794 235.3065 0.021 C 230.8339 0.2547 226.9326 1.9579 223.6027 5.1305 C 220.2728 8.303 217.6609 12.7446 215.7512 18.4218 C 213.8413 24.1324 212.7313 30.3773 212.4375 37.1899 C 212.1437 44.0026 212.0947 55.5239 212.2906 71.8209 L 212.6008 99.5723 C 212.7966 116.27 213.1231 127.9584 213.5964 134.604 C 214.0535 141.2831 215.3594 147.3944 217.4814 152.9715 C 219.6035 158.5485 222.3621 162.6895 225.7737 165.3611 C 229.1853 167.9994 233.0213 169.235 237.2653 169.0346 C 241.7379 168.8342 245.6392 167.131 248.9692 163.9919 C 252.2992 160.8193 254.9109 156.3777 256.8207 150.6671 C 258.7306 144.9565 259.8406 138.7117 260.1344 131.899 C 260.4282 125.1198 260.4935 113.565 260.2977 97.2681 L 259.9875 69.5166 L 259.9875 69.5166 ZM 239.9261 119.5093 C 240.0403 129.0604 239.9097 135.1384 239.5507 137.6764 C 239.1915 140.2145 238.3101 141.5168 236.9063 141.5836 C 235.5351 141.6505 234.6373 140.6152 234.2455 138.4111 C 233.8375 136.2404 233.5762 130.4296 233.4783 121.0121 L 232.5969 45.2716 C 232.4989 36.9228 232.7274 31.8801 233.2825 30.1435 C 233.8375 28.407 234.6536 27.5387 235.7309 27.4719 C 237.0042 27.4051 237.853 28.4404 238.2774 30.5109 C 238.7018 32.6148 238.963 37.4237 239.0609 44.971 L 239.9261 119.5093 L 239.9261 119.5093 Z"/><path d="M 309.9747 73.1092 C 310.2195 66.4302 310.2359 61.521 310.0074 58.3151 C 309.7788 55.1091 308.9138 51.5692 307.4446 47.6286 C 305.9592 43.6879 303.7555 40.3818 300.8173 37.6768 C 297.8791 35.0052 294.2553 33.302 289.946 32.6341 C 285.6039 31.9662 281.7353 32.7677 278.3563 34.9718 C 274.9774 37.2093 272.5126 40.7491 270.9456 45.558 C 269.3785 50.4004 268.4155 58.1147 268.04 68.7344 C 267.7462 76.215 268.1379 82.7938 269.2153 88.4377 C 270.2926 94.0814 273.6063 100.6937 279.1888 108.241 C 285.8161 117.191 289.4726 122.5342 290.1745 124.2374 C 290.8274 125.9739 291.0397 129.9814 290.8111 136.3265 C 290.6315 140.9351 290.2397 143.9407 289.6359 145.2765 C 289.0319 146.6456 288.0361 147.2134 286.6323 146.9796 C 285.3264 146.7793 284.4776 145.577 284.1185 143.3729 C 283.7594 141.1688 283.7104 136.4935 283.9716 129.3469 L 284.2817 120.9313 L 266.7504 118.2262 L 266.522 124.6381 C 266.0975 135.7254 266.4567 144.1076 267.5993 149.7848 C 268.7419 155.462 271.0435 160.2042 274.5041 163.9444 C 277.9646 167.6846 282.2087 169.9556 287.2363 170.757 C 291.7742 171.425 295.6918 170.5566 299.0218 168.0854 C 302.3517 165.6142 304.8002 161.7404 306.3673 156.4305 C 307.9343 151.154 308.93 143.0723 309.3381 132.2522 C 309.6809 122.5676 309.0443 115.0537 307.4446 109.677 C 305.8449 104.3338 302.2701 98.356 296.7365 91.7104 C 292.5903 86.7011 289.8643 82.9608 288.5584 80.4896 C 287.2526 78.0183 286.4854 75.7808 286.2896 73.8439 C 286.0773 71.9069 286.0447 68.868 286.2079 64.7938 C 286.3058 61.7881 286.665 59.5841 287.2852 58.1815 C 287.8892 56.7789 288.7543 56.1444 289.8643 56.278 C 291.2355 56.5117 292.0517 57.4802 292.3455 59.15 C 292.623 60.8531 292.6556 64.7603 292.4271 70.9051 L 292.166 78.1185 L 309.6972 80.8235 L 309.9747 73.1092 L 309.9747 73.1092 Z"/><path d="M 362.0133 78.621 C 361.442 71.5079 359.5648 65.0626 356.3981 59.2852 C 353.215 53.5078 349.1015 49.6339 344.0576 47.697 C 338.9647 45.7267 334.4431 46.261 330.4929 49.3 C 326.5427 52.3723 323.7513 56.48 322.1516 61.6896 C 320.5519 66.8993 319.2297 75.0144 318.2177 86.0682 L 314.8061 123.0368 C 313.6309 135.727 313.386 145.7791 314.0716 153.1927 C 314.7571 160.6065 316.5364 166.8515 319.3767 171.9275 C 322.2169 176.9702 326.3794 180.5435 331.8477 182.6474 C 336.1244 184.3172 339.8461 184.3172 343.0129 182.6808 C 346.1796 181.011 348.9056 177.8051 351.2236 173.063 C 353.5415 168.3208 355.1085 163.3783 355.9247 158.3023 C 356.7408 153.2261 357.6387 145.5118 358.6343 135.1259 L 341.3642 128.4468 L 339.9278 143.9423 C 339.3075 150.6881 338.6545 155.1965 337.969 157.434 C 337.2834 159.6714 336.2877 160.5397 334.9818 160.0054 C 333.8555 159.6047 333.1209 158.1019 332.7618 155.5638 C 332.4027 153.0258 332.4354 149.4525 332.8598 144.7771 L 338.5403 83.3632 C 339.0626 77.686 339.585 74.1127 340.1237 72.6099 C 340.6623 71.1406 341.4948 70.6062 342.6048 71.0069 C 343.7148 71.4744 344.4004 72.7101 344.6452 74.7137 C 344.8901 76.7175 344.7758 80.3576 344.3024 85.5673 L 342.915 100.5951 L 361.1808 107.675 C 362.3071 95.4523 362.5846 85.7676 362.0133 78.621 L 362.0133 78.621 Z"/><path d="M 389.1924 112.5137 C 390.4493 105.5676 391.3797 101.3931 392 99.9572 C 392.604 98.5545 393.5344 98.3208 394.7913 99.2559 C 395.9013 100.1241 396.5052 101.6937 396.6195 104.0314 C 396.7338 106.369 396.1951 110.7772 395.0035 117.2892 C 394.0568 122.4989 393.2079 125.7717 392.4734 127.1409 C 391.7225 128.5101 387.8702 129.3116 380.8839 129.5119 C 374.3708 129.679 370.0941 130.9146 368.0374 133.1854 C 365.9806 135.4564 364.0871 141.2671 362.3894 150.5844 L 360.5286 160.8033 C 358.2107 173.4268 358.0801 182.6105 360.1042 188.3879 C 362.1282 194.1652 364.7726 198.3063 368.021 200.8109 C 370.5021 202.6811 372.8364 203.2155 375.0237 202.3805 C 377.2111 201.5122 379.2841 199.3082 381.2429 195.7349 L 379.2189 206.8221 L 397.2562 220.6143 L 408.6989 158.065 C 412.4532 137.4934 414.6242 123.6344 415.1955 116.5212 C 415.7505 109.4414 414.8528 102.395 412.5021 95.4153 C 410.1516 88.4358 405.8259 82.5248 399.5577 77.7159 C 394.3179 73.7084 389.6984 72.4728 385.6992 73.9756 C 381.7 75.5118 378.6802 78.4506 376.6397 82.8588 C 374.5829 87.2669 372.6895 94.2799 370.9265 103.8978 L 369.3922 112.2466 L 386.7928 125.5713 L 389.1924 112.5137 L 389.1924 112.5137 ZM 384.8667 172.7922 C 383.7241 179.0706 382.8263 182.8109 382.206 184.0131 C 381.5858 185.2153 380.6879 185.3823 379.529 184.4807 C 378.3047 183.5456 377.6518 182.0094 377.5865 179.8053 C 377.5212 177.6012 378.0762 173.2932 379.2678 166.8145 C 380.2798 161.2041 381.3082 157.0631 382.3366 154.3915 C 383.3486 151.7532 385.7645 149.3488 389.5515 147.1447 L 384.8667 172.7922 L 384.8667 172.7922 Z"/><path d="M 439.9911 118.1315 L 397.9585 220.6217 L 413.2045 246.8036 L 429.8054 206.3286 C 433.8699 196.4101 436.6122 190.3322 438.0486 188.0613 C 439.4852 185.8238 441.1664 185.0557 443.1089 185.757 C 445.0515 186.4917 447.4183 189.2302 450.2096 194.0057 L 464.9985 157.9387 C 460.5586 151.293 455.2698 150.8923 449.1159 156.7365 L 455.2372 144.3135 L 439.9911 118.1315 L 439.9911 118.1315 Z"/><path d="M 492.6218 199.0546 L 437.759 246.6429 L 442.9498 275.964 L 500 240.732 L 492.6218 199.0546 L 492.6218 199.0546 ZM 433.7271 246.1086 L 418.8566 257.1291 L 425.1247 292.6283 L 439.9953 281.6078 L 433.7271 246.1086 L 433.7271 246.1086 Z"/></svg>